<svg xmlns="http://www.w3.org/2000/svg" xmlns:xlink="http://www.w3.org/1999/xlink" width="848" height="254" viewBox="0 0 848 254">
<rect width="848" height="254" fill="transparent"/>
<text x="157.33333333333334" y="44" fill="#ffffff" font-size="20" font-weight="bold" font-family="-apple-system, Segoe UI, Helvetica, Arial, sans-serif" text-anchor="middle">1,327</text>
<text x="157.33333333333334" y="62" fill="#ffffff" font-size="11" font-family="-apple-system, Segoe UI, Helvetica, Arial, sans-serif" text-anchor="middle">Contributions</text>
<text x="424.0" y="44" fill="#ffffff" font-size="20" font-weight="bold" font-family="-apple-system, Segoe UI, Helvetica, Arial, sans-serif" text-anchor="middle">19</text>
<text x="424.0" y="62" fill="#ffffff" font-size="11" font-family="-apple-system, Segoe UI, Helvetica, Arial, sans-serif" text-anchor="middle">Repos</text>
<text x="690.6666666666667" y="44" fill="#ffffff" font-size="20" font-weight="bold" font-family="-apple-system, Segoe UI, Helvetica, Arial, sans-serif" text-anchor="middle">7</text>
<text x="690.6666666666667" y="62" fill="#ffffff" font-size="11" font-family="-apple-system, Segoe UI, Helvetica, Arial, sans-serif" text-anchor="middle">Stars</text>
<line x1="24" y1="80" x2="824" y2="80" stroke="#21262d" stroke-width="1"/>
<text x="32" y="96" fill="#ffffff" font-size="10" font-family="sans-serif">Mar</text>
<text x="60" y="96" fill="#ffffff" font-size="10" font-family="sans-serif">Apr</text>
<text x="116" y="96" fill="#ffffff" font-size="10" font-family="sans-serif">May</text>
<text x="172" y="96" fill="#ffffff" font-size="10" font-family="sans-serif">Jun</text>
<text x="242" y="96" fill="#ffffff" font-size="10" font-family="sans-serif">Jul</text>
<text x="298" y="96" fill="#ffffff" font-size="10" font-family="sans-serif">Aug</text>
<text x="368" y="96" fill="#ffffff" font-size="10" font-family="sans-serif">Sep</text>
<text x="424" y="96" fill="#ffffff" font-size="10" font-family="sans-serif">Oct</text>
<text x="480" y="96" fill="#ffffff" font-size="10" font-family="sans-serif">Nov</text>
<text x="550" y="96" fill="#ffffff" font-size="10" font-family="sans-serif">Dec</text>
<text x="606" y="96" fill="#ffffff" font-size="10" font-family="sans-serif">Jan</text>
<text x="662" y="96" fill="#ffffff" font-size="10" font-family="sans-serif">Feb</text>
<text x="718" y="96" fill="#ffffff" font-size="10" font-family="sans-serif">Mar</text>
<text x="26" y="128" fill="#ffffff" font-size="10" font-family="sans-serif" text-anchor="end">Mon</text>
<text x="26" y="156" fill="#ffffff" font-size="10" font-family="sans-serif" text-anchor="end">Wed</text>
<text x="26" y="184" fill="#ffffff" font-size="10" font-family="sans-serif" text-anchor="end">Fri</text>
<rect x="32" y="104" width="11" height="11" rx="2" fill="#161b22"/>
<rect x="32" y="118" width="11" height="11" rx="2" fill="#161b22"/>
<rect x="32" y="132" width="11" height="11" rx="2" fill="#161b22"/>
<rect x="32" y="146" width="11" height="11" rx="2" fill="#161b22"/>
<rect x="32" y="160" width="11" height="11" rx="2" fill="#161b22"/>
<rect x="32" y="174" width="11" height="11" rx="2" fill="#0e4429"/>
<rect x="32" y="188" width="11" height="11" rx="2" fill="#161b22"/>
<rect x="46" y="104" width="11" height="11" rx="2" fill="#161b22"/>
<rect x="46" y="118" width="11" height="11" rx="2" fill="#161b22"/>
<rect x="46" y="132" width="11" height="11" rx="2" fill="#006d32"/>
<rect x="46" y="146" width="11" height="11" rx="2" fill="#0e4429"/>
<rect x="46" y="160" width="11" height="11" rx="2" fill="#0e4429"/>
<rect x="46" y="174" width="11" height="11" rx="2" fill="#26a641"/>
<rect x="46" y="188" width="11" height="11" rx="2" fill="#161b22"/>
<rect x="60" y="104" width="11" height="11" rx="2" fill="#161b22"/>
<rect x="60" y="118" width="11" height="11" rx="2" fill="#161b22"/>
<rect x="60" y="132" width="11" height="11" rx="2" fill="#161b22"/>
<rect x="60" y="146" width="11" height="11" rx="2" fill="#0e4429"/>
<rect x="60" y="160" width="11" height="11" rx="2" fill="#006d32"/>
<rect x="60" y="174" width="11" height="11" rx="2" fill="#39d353"/>
<rect x="60" y="188" width="11" height="11" rx="2" fill="#161b22"/>
<rect x="74" y="104" width="11" height="11" rx="2" fill="#161b22"/>
<rect x="74" y="118" width="11" height="11" rx="2" fill="#0e4429"/>
<rect x="74" y="132" width="11" height="11" rx="2" fill="#0e4429"/>
<rect x="74" y="146" width="11" height="11" rx="2" fill="#161b22"/>
<rect x="74" y="160" width="11" height="11" rx="2" fill="#161b22"/>
<rect x="74" y="174" width="11" height="11" rx="2" fill="#161b22"/>
<rect x="74" y="188" width="11" height="11" rx="2" fill="#161b22"/>
<rect x="88" y="104" width="11" height="11" rx="2" fill="#161b22"/>
<rect x="88" y="118" width="11" height="11" rx="2" fill="#161b22"/>
<rect x="88" y="132" width="11" height="11" rx="2" fill="#0e4429"/>
<rect x="88" y="146" width="11" height="11" rx="2" fill="#0e4429"/>
<rect x="88" y="160" width="11" height="11" rx="2" fill="#161b22"/>
<rect x="88" y="174" width="11" height="11" rx="2" fill="#39d353"/>
<rect x="88" y="188" width="11" height="11" rx="2" fill="#161b22"/>
<rect x="102" y="104" width="11" height="11" rx="2" fill="#161b22"/>
<rect x="102" y="118" width="11" height="11" rx="2" fill="#161b22"/>
<rect x="102" y="132" width="11" height="11" rx="2" fill="#39d353"/>
<rect x="102" y="146" width="11" height="11" rx="2" fill="#39d353"/>
<rect x="102" y="160" width="11" height="11" rx="2" fill="#161b22"/>
<rect x="102" y="174" width="11" height="11" rx="2" fill="#006d32"/>
<rect x="102" y="188" width="11" height="11" rx="2" fill="#0e4429"/>
<rect x="116" y="104" width="11" height="11" rx="2" fill="#0e4429"/>
<rect x="116" y="118" width="11" height="11" rx="2" fill="#39d353"/>
<rect x="116" y="132" width="11" height="11" rx="2" fill="#0e4429"/>
<rect x="116" y="146" width="11" height="11" rx="2" fill="#26a641"/>
<rect x="116" y="160" width="11" height="11" rx="2" fill="#26a641"/>
<rect x="116" y="174" width="11" height="11" rx="2" fill="#006d32"/>
<rect x="116" y="188" width="11" height="11" rx="2" fill="#161b22"/>
<rect x="130" y="104" width="11" height="11" rx="2" fill="#161b22"/>
<rect x="130" y="118" width="11" height="11" rx="2" fill="#0e4429"/>
<rect x="130" y="132" width="11" height="11" rx="2" fill="#161b22"/>
<rect x="130" y="146" width="11" height="11" rx="2" fill="#006d32"/>
<rect x="130" y="160" width="11" height="11" rx="2" fill="#26a641"/>
<rect x="130" y="174" width="11" height="11" rx="2" fill="#0e4429"/>
<rect x="130" y="188" width="11" height="11" rx="2" fill="#39d353"/>
<rect x="144" y="104" width="11" height="11" rx="2" fill="#006d32"/>
<rect x="144" y="118" width="11" height="11" rx="2" fill="#0e4429"/>
<rect x="144" y="132" width="11" height="11" rx="2" fill="#0e4429"/>
<rect x="144" y="146" width="11" height="11" rx="2" fill="#26a641"/>
<rect x="144" y="160" width="11" height="11" rx="2" fill="#26a641"/>
<rect x="144" y="174" width="11" height="11" rx="2" fill="#26a641"/>
<rect x="144" y="188" width="11" height="11" rx="2" fill="#161b22"/>
<rect x="158" y="104" width="11" height="11" rx="2" fill="#161b22"/>
<rect x="158" y="118" width="11" height="11" rx="2" fill="#39d353"/>
<rect x="158" y="132" width="11" height="11" rx="2" fill="#26a641"/>
<rect x="158" y="146" width="11" height="11" rx="2" fill="#39d353"/>
<rect x="158" y="160" width="11" height="11" rx="2" fill="#161b22"/>
<rect x="158" y="174" width="11" height="11" rx="2" fill="#006d32"/>
<rect x="158" y="188" width="11" height="11" rx="2" fill="#0e4429"/>
<rect x="172" y="104" width="11" height="11" rx="2" fill="#161b22"/>
<rect x="172" y="118" width="11" height="11" rx="2" fill="#26a641"/>
<rect x="172" y="132" width="11" height="11" rx="2" fill="#161b22"/>
<rect x="172" y="146" width="11" height="11" rx="2" fill="#006d32"/>
<rect x="172" y="160" width="11" height="11" rx="2" fill="#26a641"/>
<rect x="172" y="174" width="11" height="11" rx="2" fill="#006d32"/>
<rect x="172" y="188" width="11" height="11" rx="2" fill="#161b22"/>
<rect x="186" y="104" width="11" height="11" rx="2" fill="#161b22"/>
<rect x="186" y="118" width="11" height="11" rx="2" fill="#161b22"/>
<rect x="186" y="132" width="11" height="11" rx="2" fill="#006d32"/>
<rect x="186" y="146" width="11" height="11" rx="2" fill="#0e4429"/>
<rect x="186" y="160" width="11" height="11" rx="2" fill="#0e4429"/>
<rect x="186" y="174" width="11" height="11" rx="2" fill="#006d32"/>
<rect x="186" y="188" width="11" height="11" rx="2" fill="#161b22"/>
<rect x="200" y="104" width="11" height="11" rx="2" fill="#161b22"/>
<rect x="200" y="118" width="11" height="11" rx="2" fill="#161b22"/>
<rect x="200" y="132" width="11" height="11" rx="2" fill="#0e4429"/>
<rect x="200" y="146" width="11" height="11" rx="2" fill="#006d32"/>
<rect x="200" y="160" width="11" height="11" rx="2" fill="#161b22"/>
<rect x="200" y="174" width="11" height="11" rx="2" fill="#161b22"/>
<rect x="200" y="188" width="11" height="11" rx="2" fill="#161b22"/>
<rect x="214" y="104" width="11" height="11" rx="2" fill="#161b22"/>
<rect x="214" y="118" width="11" height="11" rx="2" fill="#161b22"/>
<rect x="214" y="132" width="11" height="11" rx="2" fill="#006d32"/>
<rect x="214" y="146" width="11" height="11" rx="2" fill="#006d32"/>
<rect x="214" y="160" width="11" height="11" rx="2" fill="#0e4429"/>
<rect x="214" y="174" width="11" height="11" rx="2" fill="#0e4429"/>
<rect x="214" y="188" width="11" height="11" rx="2" fill="#161b22"/>
<rect x="228" y="104" width="11" height="11" rx="2" fill="#161b22"/>
<rect x="228" y="118" width="11" height="11" rx="2" fill="#161b22"/>
<rect x="228" y="132" width="11" height="11" rx="2" fill="#161b22"/>
<rect x="228" y="146" width="11" height="11" rx="2" fill="#161b22"/>
<rect x="228" y="160" width="11" height="11" rx="2" fill="#161b22"/>
<rect x="228" y="174" width="11" height="11" rx="2" fill="#161b22"/>
<rect x="228" y="188" width="11" height="11" rx="2" fill="#161b22"/>
<rect x="242" y="104" width="11" height="11" rx="2" fill="#161b22"/>
<rect x="242" y="118" width="11" height="11" rx="2" fill="#161b22"/>
<rect x="242" y="132" width="11" height="11" rx="2" fill="#161b22"/>
<rect x="242" y="146" width="11" height="11" rx="2" fill="#161b22"/>
<rect x="242" y="160" width="11" height="11" rx="2" fill="#161b22"/>
<rect x="242" y="174" width="11" height="11" rx="2" fill="#161b22"/>
<rect x="242" y="188" width="11" height="11" rx="2" fill="#161b22"/>
<rect x="256" y="104" width="11" height="11" rx="2" fill="#161b22"/>
<rect x="256" y="118" width="11" height="11" rx="2" fill="#161b22"/>
<rect x="256" y="132" width="11" height="11" rx="2" fill="#161b22"/>
<rect x="256" y="146" width="11" height="11" rx="2" fill="#161b22"/>
<rect x="256" y="160" width="11" height="11" rx="2" fill="#161b22"/>
<rect x="256" y="174" width="11" height="11" rx="2" fill="#161b22"/>
<rect x="256" y="188" width="11" height="11" rx="2" fill="#161b22"/>
<rect x="270" y="104" width="11" height="11" rx="2" fill="#161b22"/>
<rect x="270" y="118" width="11" height="11" rx="2" fill="#161b22"/>
<rect x="270" y="132" width="11" height="11" rx="2" fill="#161b22"/>
<rect x="270" y="146" width="11" height="11" rx="2" fill="#161b22"/>
<rect x="270" y="160" width="11" height="11" rx="2" fill="#161b22"/>
<rect x="270" y="174" width="11" height="11" rx="2" fill="#0e4429"/>
<rect x="270" y="188" width="11" height="11" rx="2" fill="#161b22"/>
<rect x="284" y="104" width="11" height="11" rx="2" fill="#161b22"/>
<rect x="284" y="118" width="11" height="11" rx="2" fill="#161b22"/>
<rect x="284" y="132" width="11" height="11" rx="2" fill="#161b22"/>
<rect x="284" y="146" width="11" height="11" rx="2" fill="#161b22"/>
<rect x="284" y="160" width="11" height="11" rx="2" fill="#161b22"/>
<rect x="284" y="174" width="11" height="11" rx="2" fill="#161b22"/>
<rect x="284" y="188" width="11" height="11" rx="2" fill="#161b22"/>
<rect x="298" y="104" width="11" height="11" rx="2" fill="#161b22"/>
<rect x="298" y="118" width="11" height="11" rx="2" fill="#161b22"/>
<rect x="298" y="132" width="11" height="11" rx="2" fill="#161b22"/>
<rect x="298" y="146" width="11" height="11" rx="2" fill="#161b22"/>
<rect x="298" y="160" width="11" height="11" rx="2" fill="#161b22"/>
<rect x="298" y="174" width="11" height="11" rx="2" fill="#161b22"/>
<rect x="298" y="188" width="11" height="11" rx="2" fill="#161b22"/>
<rect x="312" y="104" width="11" height="11" rx="2" fill="#161b22"/>
<rect x="312" y="118" width="11" height="11" rx="2" fill="#161b22"/>
<rect x="312" y="132" width="11" height="11" rx="2" fill="#161b22"/>
<rect x="312" y="146" width="11" height="11" rx="2" fill="#161b22"/>
<rect x="312" y="160" width="11" height="11" rx="2" fill="#161b22"/>
<rect x="312" y="174" width="11" height="11" rx="2" fill="#161b22"/>
<rect x="312" y="188" width="11" height="11" rx="2" fill="#161b22"/>
<rect x="326" y="104" width="11" height="11" rx="2" fill="#161b22"/>
<rect x="326" y="118" width="11" height="11" rx="2" fill="#161b22"/>
<rect x="326" y="132" width="11" height="11" rx="2" fill="#161b22"/>
<rect x="326" y="146" width="11" height="11" rx="2" fill="#161b22"/>
<rect x="326" y="160" width="11" height="11" rx="2" fill="#161b22"/>
<rect x="326" y="174" width="11" height="11" rx="2" fill="#161b22"/>
<rect x="326" y="188" width="11" height="11" rx="2" fill="#161b22"/>
<rect x="340" y="104" width="11" height="11" rx="2" fill="#161b22"/>
<rect x="340" y="118" width="11" height="11" rx="2" fill="#161b22"/>
<rect x="340" y="132" width="11" height="11" rx="2" fill="#161b22"/>
<rect x="340" y="146" width="11" height="11" rx="2" fill="#161b22"/>
<rect x="340" y="160" width="11" height="11" rx="2" fill="#161b22"/>
<rect x="340" y="174" width="11" height="11" rx="2" fill="#161b22"/>
<rect x="340" y="188" width="11" height="11" rx="2" fill="#161b22"/>
<rect x="354" y="104" width="11" height="11" rx="2" fill="#161b22"/>
<rect x="354" y="118" width="11" height="11" rx="2" fill="#161b22"/>
<rect x="354" y="132" width="11" height="11" rx="2" fill="#161b22"/>
<rect x="354" y="146" width="11" height="11" rx="2" fill="#161b22"/>
<rect x="354" y="160" width="11" height="11" rx="2" fill="#161b22"/>
<rect x="354" y="174" width="11" height="11" rx="2" fill="#161b22"/>
<rect x="354" y="188" width="11" height="11" rx="2" fill="#161b22"/>
<rect x="368" y="104" width="11" height="11" rx="2" fill="#161b22"/>
<rect x="368" y="118" width="11" height="11" rx="2" fill="#161b22"/>
<rect x="368" y="132" width="11" height="11" rx="2" fill="#161b22"/>
<rect x="368" y="146" width="11" height="11" rx="2" fill="#161b22"/>
<rect x="368" y="160" width="11" height="11" rx="2" fill="#161b22"/>
<rect x="368" y="174" width="11" height="11" rx="2" fill="#161b22"/>
<rect x="368" y="188" width="11" height="11" rx="2" fill="#161b22"/>
<rect x="382" y="104" width="11" height="11" rx="2" fill="#161b22"/>
<rect x="382" y="118" width="11" height="11" rx="2" fill="#161b22"/>
<rect x="382" y="132" width="11" height="11" rx="2" fill="#161b22"/>
<rect x="382" y="146" width="11" height="11" rx="2" fill="#161b22"/>
<rect x="382" y="160" width="11" height="11" rx="2" fill="#161b22"/>
<rect x="382" y="174" width="11" height="11" rx="2" fill="#161b22"/>
<rect x="382" y="188" width="11" height="11" rx="2" fill="#161b22"/>
<rect x="396" y="104" width="11" height="11" rx="2" fill="#161b22"/>
<rect x="396" y="118" width="11" height="11" rx="2" fill="#161b22"/>
<rect x="396" y="132" width="11" height="11" rx="2" fill="#161b22"/>
<rect x="396" y="146" width="11" height="11" rx="2" fill="#161b22"/>
<rect x="396" y="160" width="11" height="11" rx="2" fill="#161b22"/>
<rect x="396" y="174" width="11" height="11" rx="2" fill="#161b22"/>
<rect x="396" y="188" width="11" height="11" rx="2" fill="#161b22"/>
<rect x="410" y="104" width="11" height="11" rx="2" fill="#161b22"/>
<rect x="410" y="118" width="11" height="11" rx="2" fill="#161b22"/>
<rect x="410" y="132" width="11" height="11" rx="2" fill="#161b22"/>
<rect x="410" y="146" width="11" height="11" rx="2" fill="#161b22"/>
<rect x="410" y="160" width="11" height="11" rx="2" fill="#161b22"/>
<rect x="410" y="174" width="11" height="11" rx="2" fill="#161b22"/>
<rect x="410" y="188" width="11" height="11" rx="2" fill="#161b22"/>
<rect x="424" y="104" width="11" height="11" rx="2" fill="#161b22"/>
<rect x="424" y="118" width="11" height="11" rx="2" fill="#161b22"/>
<rect x="424" y="132" width="11" height="11" rx="2" fill="#161b22"/>
<rect x="424" y="146" width="11" height="11" rx="2" fill="#161b22"/>
<rect x="424" y="160" width="11" height="11" rx="2" fill="#161b22"/>
<rect x="424" y="174" width="11" height="11" rx="2" fill="#161b22"/>
<rect x="424" y="188" width="11" height="11" rx="2" fill="#161b22"/>
<rect x="438" y="104" width="11" height="11" rx="2" fill="#161b22"/>
<rect x="438" y="118" width="11" height="11" rx="2" fill="#161b22"/>
<rect x="438" y="132" width="11" height="11" rx="2" fill="#0e4429"/>
<rect x="438" y="146" width="11" height="11" rx="2" fill="#161b22"/>
<rect x="438" y="160" width="11" height="11" rx="2" fill="#0e4429"/>
<rect x="438" y="174" width="11" height="11" rx="2" fill="#161b22"/>
<rect x="438" y="188" width="11" height="11" rx="2" fill="#161b22"/>
<rect x="452" y="104" width="11" height="11" rx="2" fill="#161b22"/>
<rect x="452" y="118" width="11" height="11" rx="2" fill="#161b22"/>
<rect x="452" y="132" width="11" height="11" rx="2" fill="#161b22"/>
<rect x="452" y="146" width="11" height="11" rx="2" fill="#161b22"/>
<rect x="452" y="160" width="11" height="11" rx="2" fill="#161b22"/>
<rect x="452" y="174" width="11" height="11" rx="2" fill="#006d32"/>
<rect x="452" y="188" width="11" height="11" rx="2" fill="#161b22"/>
<rect x="466" y="104" width="11" height="11" rx="2" fill="#161b22"/>
<rect x="466" y="118" width="11" height="11" rx="2" fill="#161b22"/>
<rect x="466" y="132" width="11" height="11" rx="2" fill="#0e4429"/>
<rect x="466" y="146" width="11" height="11" rx="2" fill="#161b22"/>
<rect x="466" y="160" width="11" height="11" rx="2" fill="#161b22"/>
<rect x="466" y="174" width="11" height="11" rx="2" fill="#161b22"/>
<rect x="466" y="188" width="11" height="11" rx="2" fill="#161b22"/>
<rect x="480" y="104" width="11" height="11" rx="2" fill="#161b22"/>
<rect x="480" y="118" width="11" height="11" rx="2" fill="#161b22"/>
<rect x="480" y="132" width="11" height="11" rx="2" fill="#161b22"/>
<rect x="480" y="146" width="11" height="11" rx="2" fill="#161b22"/>
<rect x="480" y="160" width="11" height="11" rx="2" fill="#161b22"/>
<rect x="480" y="174" width="11" height="11" rx="2" fill="#161b22"/>
<rect x="480" y="188" width="11" height="11" rx="2" fill="#161b22"/>
<rect x="494" y="104" width="11" height="11" rx="2" fill="#161b22"/>
<rect x="494" y="118" width="11" height="11" rx="2" fill="#161b22"/>
<rect x="494" y="132" width="11" height="11" rx="2" fill="#161b22"/>
<rect x="494" y="146" width="11" height="11" rx="2" fill="#161b22"/>
<rect x="494" y="160" width="11" height="11" rx="2" fill="#161b22"/>
<rect x="494" y="174" width="11" height="11" rx="2" fill="#161b22"/>
<rect x="494" y="188" width="11" height="11" rx="2" fill="#161b22"/>
<rect x="508" y="104" width="11" height="11" rx="2" fill="#161b22"/>
<rect x="508" y="118" width="11" height="11" rx="2" fill="#161b22"/>
<rect x="508" y="132" width="11" height="11" rx="2" fill="#0e4429"/>
<rect x="508" y="146" width="11" height="11" rx="2" fill="#0e4429"/>
<rect x="508" y="160" width="11" height="11" rx="2" fill="#006d32"/>
<rect x="508" y="174" width="11" height="11" rx="2" fill="#0e4429"/>
<rect x="508" y="188" width="11" height="11" rx="2" fill="#161b22"/>
<rect x="522" y="104" width="11" height="11" rx="2" fill="#161b22"/>
<rect x="522" y="118" width="11" height="11" rx="2" fill="#161b22"/>
<rect x="522" y="132" width="11" height="11" rx="2" fill="#0e4429"/>
<rect x="522" y="146" width="11" height="11" rx="2" fill="#006d32"/>
<rect x="522" y="160" width="11" height="11" rx="2" fill="#0e4429"/>
<rect x="522" y="174" width="11" height="11" rx="2" fill="#006d32"/>
<rect x="522" y="188" width="11" height="11" rx="2" fill="#006d32"/>
<rect x="536" y="104" width="11" height="11" rx="2" fill="#161b22"/>
<rect x="536" y="118" width="11" height="11" rx="2" fill="#161b22"/>
<rect x="536" y="132" width="11" height="11" rx="2" fill="#161b22"/>
<rect x="536" y="146" width="11" height="11" rx="2" fill="#161b22"/>
<rect x="536" y="160" width="11" height="11" rx="2" fill="#0e4429"/>
<rect x="536" y="174" width="11" height="11" rx="2" fill="#0e4429"/>
<rect x="536" y="188" width="11" height="11" rx="2" fill="#006d32"/>
<rect x="550" y="104" width="11" height="11" rx="2" fill="#161b22"/>
<rect x="550" y="118" width="11" height="11" rx="2" fill="#0e4429"/>
<rect x="550" y="132" width="11" height="11" rx="2" fill="#0e4429"/>
<rect x="550" y="146" width="11" height="11" rx="2" fill="#26a641"/>
<rect x="550" y="160" width="11" height="11" rx="2" fill="#161b22"/>
<rect x="550" y="174" width="11" height="11" rx="2" fill="#0e4429"/>
<rect x="550" y="188" width="11" height="11" rx="2" fill="#006d32"/>
<rect x="564" y="104" width="11" height="11" rx="2" fill="#161b22"/>
<rect x="564" y="118" width="11" height="11" rx="2" fill="#161b22"/>
<rect x="564" y="132" width="11" height="11" rx="2" fill="#161b22"/>
<rect x="564" y="146" width="11" height="11" rx="2" fill="#26a641"/>
<rect x="564" y="160" width="11" height="11" rx="2" fill="#161b22"/>
<rect x="564" y="174" width="11" height="11" rx="2" fill="#006d32"/>
<rect x="564" y="188" width="11" height="11" rx="2" fill="#161b22"/>
<rect x="578" y="104" width="11" height="11" rx="2" fill="#161b22"/>
<rect x="578" y="118" width="11" height="11" rx="2" fill="#161b22"/>
<rect x="578" y="132" width="11" height="11" rx="2" fill="#161b22"/>
<rect x="578" y="146" width="11" height="11" rx="2" fill="#161b22"/>
<rect x="578" y="160" width="11" height="11" rx="2" fill="#161b22"/>
<rect x="578" y="174" width="11" height="11" rx="2" fill="#161b22"/>
<rect x="578" y="188" width="11" height="11" rx="2" fill="#161b22"/>
<rect x="592" y="104" width="11" height="11" rx="2" fill="#161b22"/>
<rect x="592" y="118" width="11" height="11" rx="2" fill="#161b22"/>
<rect x="592" y="132" width="11" height="11" rx="2" fill="#161b22"/>
<rect x="592" y="146" width="11" height="11" rx="2" fill="#161b22"/>
<rect x="592" y="160" width="11" height="11" rx="2" fill="#161b22"/>
<rect x="592" y="174" width="11" height="11" rx="2" fill="#161b22"/>
<rect x="592" y="188" width="11" height="11" rx="2" fill="#161b22"/>
<rect x="606" y="104" width="11" height="11" rx="2" fill="#0e4429"/>
<rect x="606" y="118" width="11" height="11" rx="2" fill="#0e4429"/>
<rect x="606" y="132" width="11" height="11" rx="2" fill="#161b22"/>
<rect x="606" y="146" width="11" height="11" rx="2" fill="#26a641"/>
<rect x="606" y="160" width="11" height="11" rx="2" fill="#161b22"/>
<rect x="606" y="174" width="11" height="11" rx="2" fill="#006d32"/>
<rect x="606" y="188" width="11" height="11" rx="2" fill="#161b22"/>
<rect x="620" y="104" width="11" height="11" rx="2" fill="#161b22"/>
<rect x="620" y="118" width="11" height="11" rx="2" fill="#161b22"/>
<rect x="620" y="132" width="11" height="11" rx="2" fill="#006d32"/>
<rect x="620" y="146" width="11" height="11" rx="2" fill="#0e4429"/>
<rect x="620" y="160" width="11" height="11" rx="2" fill="#161b22"/>
<rect x="620" y="174" width="11" height="11" rx="2" fill="#161b22"/>
<rect x="620" y="188" width="11" height="11" rx="2" fill="#161b22"/>
<rect x="634" y="104" width="11" height="11" rx="2" fill="#161b22"/>
<rect x="634" y="118" width="11" height="11" rx="2" fill="#161b22"/>
<rect x="634" y="132" width="11" height="11" rx="2" fill="#161b22"/>
<rect x="634" y="146" width="11" height="11" rx="2" fill="#161b22"/>
<rect x="634" y="160" width="11" height="11" rx="2" fill="#161b22"/>
<rect x="634" y="174" width="11" height="11" rx="2" fill="#161b22"/>
<rect x="634" y="188" width="11" height="11" rx="2" fill="#161b22"/>
<rect x="648" y="104" width="11" height="11" rx="2" fill="#161b22"/>
<rect x="648" y="118" width="11" height="11" rx="2" fill="#161b22"/>
<rect x="648" y="132" width="11" height="11" rx="2" fill="#161b22"/>
<rect x="648" y="146" width="11" height="11" rx="2" fill="#006d32"/>
<rect x="648" y="160" width="11" height="11" rx="2" fill="#0e4429"/>
<rect x="648" y="174" width="11" height="11" rx="2" fill="#39d353"/>
<rect x="648" y="188" width="11" height="11" rx="2" fill="#161b22"/>
<rect x="662" y="104" width="11" height="11" rx="2" fill="#161b22"/>
<rect x="662" y="118" width="11" height="11" rx="2" fill="#161b22"/>
<rect x="662" y="132" width="11" height="11" rx="2" fill="#161b22"/>
<rect x="662" y="146" width="11" height="11" rx="2" fill="#161b22"/>
<rect x="662" y="160" width="11" height="11" rx="2" fill="#26a641"/>
<rect x="662" y="174" width="11" height="11" rx="2" fill="#0e4429"/>
<rect x="662" y="188" width="11" height="11" rx="2" fill="#161b22"/>
<rect x="676" y="104" width="11" height="11" rx="2" fill="#161b22"/>
<rect x="676" y="118" width="11" height="11" rx="2" fill="#0e4429"/>
<rect x="676" y="132" width="11" height="11" rx="2" fill="#006d32"/>
<rect x="676" y="146" width="11" height="11" rx="2" fill="#26a641"/>
<rect x="676" y="160" width="11" height="11" rx="2" fill="#006d32"/>
<rect x="676" y="174" width="11" height="11" rx="2" fill="#006d32"/>
<rect x="676" y="188" width="11" height="11" rx="2" fill="#161b22"/>
<rect x="690" y="104" width="11" height="11" rx="2" fill="#161b22"/>
<rect x="690" y="118" width="11" height="11" rx="2" fill="#006d32"/>
<rect x="690" y="132" width="11" height="11" rx="2" fill="#0e4429"/>
<rect x="690" y="146" width="11" height="11" rx="2" fill="#0e4429"/>
<rect x="690" y="160" width="11" height="11" rx="2" fill="#006d32"/>
<rect x="690" y="174" width="11" height="11" rx="2" fill="#161b22"/>
<rect x="690" y="188" width="11" height="11" rx="2" fill="#161b22"/>
<rect x="704" y="104" width="11" height="11" rx="2" fill="#161b22"/>
<rect x="704" y="118" width="11" height="11" rx="2" fill="#39d353"/>
<rect x="704" y="132" width="11" height="11" rx="2" fill="#161b22"/>
<rect x="704" y="146" width="11" height="11" rx="2" fill="#161b22"/>
<rect x="704" y="160" width="11" height="11" rx="2" fill="#26a641"/>
<rect x="704" y="174" width="11" height="11" rx="2" fill="#39d353"/>
<rect x="704" y="188" width="11" height="11" rx="2" fill="#39d353"/>
<rect x="718" y="104" width="11" height="11" rx="2" fill="#161b22"/>
<rect x="718" y="118" width="11" height="11" rx="2" fill="#161b22"/>
<rect x="718" y="132" width="11" height="11" rx="2" fill="#39d353"/>
<rect x="718" y="146" width="11" height="11" rx="2" fill="#006d32"/>
<rect x="718" y="160" width="11" height="11" rx="2" fill="#006d32"/>
<rect x="718" y="174" width="11" height="11" rx="2" fill="#0e4429"/>
<rect x="718" y="188" width="11" height="11" rx="2" fill="#26a641"/>
<rect x="732" y="104" width="11" height="11" rx="2" fill="#161b22"/>
<rect x="732" y="118" width="11" height="11" rx="2" fill="#26a641"/>
<rect x="732" y="132" width="11" height="11" rx="2" fill="#006d32"/>
<rect x="732" y="146" width="11" height="11" rx="2" fill="#0e4429"/>
<rect x="732" y="160" width="11" height="11" rx="2" fill="#161b22"/>
<rect x="732" y="174" width="11" height="11" rx="2" fill="#0e4429"/>
<rect x="732" y="188" width="11" height="11" rx="2" fill="#161b22"/>
<rect x="746" y="104" width="11" height="11" rx="2" fill="#161b22"/>
<rect x="746" y="118" width="11" height="11" rx="2" fill="#0e4429"/>
<rect x="746" y="132" width="11" height="11" rx="2" fill="#26a641"/>
<rect x="746" y="146" width="11" height="11" rx="2" fill="#0e4429"/>
<rect x="746" y="160" width="11" height="11" rx="2" fill="#0e4429"/>
<rect x="746" y="174" width="11" height="11" rx="2" fill="#161b22"/>
<rect x="746" y="188" width="11" height="11" rx="2" fill="#0e4429"/>
<rect x="760" y="104" width="11" height="11" rx="2" fill="#161b22"/>
<rect x="760" y="118" width="11" height="11" rx="2" fill="#006d32"/>
<rect x="760" y="132" width="11" height="11" rx="2" fill="#0e4429"/>
<rect x="760" y="146" width="11" height="11" rx="2" fill="#0e4429"/>
<rect x="760" y="160" width="11" height="11" rx="2" fill="#0e4429"/>
<rect x="760" y="174" width="11" height="11" rx="2" fill="#26a641"/>
<text x="701" y="217" fill="#ffffff" font-size="10" font-family="sans-serif">Less</text>
<rect x="729" y="208" width="10" height="10" rx="2" fill="#161b22"/>
<rect x="742" y="208" width="10" height="10" rx="2" fill="#0e4429"/>
<rect x="755" y="208" width="10" height="10" rx="2" fill="#006d32"/>
<rect x="768" y="208" width="10" height="10" rx="2" fill="#26a641"/>
<rect x="781" y="208" width="10" height="10" rx="2" fill="#39d353"/>
<text x="794" y="217" fill="#ffffff" font-size="10" font-family="sans-serif">More</text>
</svg>