<?xml version="1.0" standalone="no"?>
<!DOCTYPE svg PUBLIC "-//W3C//DTD SVG 20010904//EN"
        "http://www.w3.org/TR/2001/REC-SVG-20010904/DTD/svg10.dtd">
<svg version="1.0" xmlns="http://www.w3.org/2000/svg"
     width="600.000000pt" height="600.000000pt" viewBox="0 0 600.000000 600.000000"
     preserveAspectRatio="xMidYMid meet">

    <g transform="translate(0.000000,600.000000) scale(0.100000,-0.100000)"
       fill="#ffffff" stroke="none">
        <path d="M3320 5648 c-47 -28 -245 -143 -440 -255 -570 -329 -783 -454 -817
-480 -23 -17 -50 -61 -97 -158 -106 -219 -1042 -2068 -1127 -2225 -80 -149
-137 -278 -146 -334 -5 -32 -5 -32 159 -129 118 -69 174 -97 198 -97 37 0 111
35 231 111 117 73 1178 689 1188 689 8 0 25 -34 88 -175 72 -163 349 -822 575
-1370 116 -280 222 -532 235 -560 35 -69 67 -101 150 -146 39 -22 129 -78 199
-125 70 -46 138 -87 151 -90 44 -11 89 6 213 82 69 42 267 157 440 256 387
222 612 356 708 420 71 48 73 51 67 81 -26 120 -376 1190 -428 1308 l-25 56
-77 6 c-43 4 -101 7 -130 7 -74 0 -197 34 -290 80 -274 136 -455 410 -471 715
-15 282 120 558 362 741 l76 57 -5 46 c-3 25 -100 327 -214 671 l-208 625 -49
37 c-113 84 -361 209 -414 208 -9 -1 -55 -24 -102 -52z m220 -123 c30 -18 79
-45 108 -59 31 -16 50 -31 46 -37 -18 -29 -333 -218 -848 -509 -148 -83 -286
-163 -307 -177 -27 -17 -44 -23 -61 -18 -27 8 -193 101 -226 126 l-23 17 28
20 c60 42 996 586 1143 664 42 22 66 18 140 -27z m-1350 -779 c141 -73 235
-133 247 -156 18 -39 969 -2924 1197 -3630 136 -423 140 -439 133 -446 -6 -7
-165 87 -240 141 -40 29 -48 45 -170 335 -170 406 -498 1196 -692 1665 -191
462 -322 768 -381 892 -53 111 -65 115 -129 46 -59 -64 -949 -1261 -1063
-1430 l-42 -62 -44 19 c-57 24 -176 99 -176 111 0 5 241 486 535 1068 294 583
582 1155 640 1271 58 115 108 210 113 210 4 0 36 -15 72 -34z"/>
        <path d="M4570 3884 c-196 -51 -335 -192 -381 -384 -45 -191 22 -420 162 -558
161 -159 430 -183 641 -56 187 113 292 331 260 542 -33 215 -200 403 -407 458
-65 18 -205 17 -275 -2z m255 -119 c119 -31 202 -96 226 -174 10 -35 9 -48
-11 -103 -56 -153 -170 -278 -325 -354 -107 -53 -227 -82 -282 -68 -104 26
-175 258 -128 420 61 213 293 338 520 279z"/>
    </g>
</svg>
